<svg width="28" height="21" viewBox="0 0 28 21" fill="none" xmlns="http://www.w3.org/2000/svg">
<path fill-rule="evenodd" clip-rule="evenodd" d="M27.0759 21C26.6723 21 26.3439 20.6744 26.3439 20.2705C26.3439 19.8692 26.6723 19.5407 27.0759 19.5407C27.4793 19.5407 27.808 19.8692 27.808 20.2705C27.808 20.6744 27.4793 21 27.0759 21ZM27.0759 19.6801C26.7477 19.6801 26.4816 19.9444 26.4816 20.2705C26.4816 20.599 26.7477 20.8635 27.0759 20.8635C27.4044 20.8635 27.67 20.599 27.67 20.2705C27.67 19.9444 27.4044 19.6801 27.0759 19.6801ZM27.2622 20.6829L27.0544 20.3283H26.9334V20.6829H26.7957V19.8574H27.102C27.3058 19.8574 27.4153 19.9258 27.4153 20.0994C27.4153 20.2493 27.3208 20.3087 27.1925 20.3223L27.4206 20.6829H27.2622ZM27.2761 20.0876C27.2761 19.9894 27.1827 19.9711 27.102 19.9711H26.9334V20.2139H27.0993C27.1966 20.2139 27.2761 20.2 27.2761 20.0876ZM0 0H25.6295V20.9779H0V0Z" fill="#FF4713"/>
<path fill-rule="evenodd" clip-rule="evenodd" d="M16.7655 14.86H21.1542V12.0625H19.7053L19.7065 13.5919C19.7065 14.002 19.3722 14.3359 18.9602 14.3359C18.5484 14.3359 18.2139 14.002 18.2139 13.5919V6.07471H16.7655V14.86Z" fill="white"/>
<path fill-rule="evenodd" clip-rule="evenodd" d="M11.3684 14.86V6.07471H14.2642C14.823 6.07471 15.7119 6.53338 15.7119 7.50618V9.00268C15.7119 9.44024 15.3281 10.2157 14.7578 10.2157C15.3281 10.2157 15.7119 10.7069 15.7119 11.079V13.7124C15.7119 14.1603 15.3503 14.86 14.2642 14.86H11.3684ZM13.606 9.85707C14.1326 9.85707 14.2642 9.76845 14.2642 8.39132C14.2642 7.01458 14.1326 6.90485 13.606 6.90485H12.8151V9.85496L13.606 9.85707ZM14.2642 12.3793C14.2642 11.0018 14.2642 10.5985 13.6925 10.5985H12.8151V14.1382L13.6925 14.1399C14.2642 14.1399 14.2642 13.7557 14.2642 12.3793Z" fill="white"/>
<path fill-rule="evenodd" clip-rule="evenodd" d="M5.88055 13.3299C5.88055 13.9634 6.45111 14.9905 8.07444 14.9905C9.69816 14.9905 10.2691 14.2047 10.2691 13.3299V6.07471H8.82028L8.82103 13.5819C8.82103 13.992 8.4876 14.3359 8.07554 14.3359C7.66307 14.3359 7.32895 14.002 7.32895 13.5919L7.32789 12.0625H5.88055V13.3299Z" fill="white"/>
<path fill-rule="evenodd" clip-rule="evenodd" d="M6.60495 11.105C7.06713 11.105 7.44273 10.7307 7.44273 10.2706C7.44273 9.80837 7.06713 9.43555 6.60495 9.43555C6.14135 9.43555 5.7668 9.80837 5.7668 10.2706C5.7668 10.7307 6.14135 11.105 6.60495 11.105Z" fill="white"/>
<path fill-rule="evenodd" clip-rule="evenodd" d="M6.60443 9.11205L7.9427 6.07471H5.26585L6.60443 9.11205Z" fill="white"/>
</svg>
